<svg width="163" height="38" viewBox="0 0 163 38" fill="none" xmlns="http://www.w3.org/2000/svg">
<circle cx="19" cy="19" r="19" fill="#B00021"/>
<path fill-rule="evenodd" clip-rule="evenodd" d="M25.5965 10.0752C26.2907 10.286 26.5969 10.8408 26.7121 11.0971C26.9575 11.6437 27 12.327 27 12.8086V27.0567C27 28.1335 26.7061 29.3885 25.4942 29.8554C24.9552 30.063 24.439 30.0129 24.0714 29.9165C23.7012 29.8195 23.3823 29.6519 23.1408 29.4858L23.0605 29.4305L18.9374 25.6689H14.3017C12.8436 25.6689 11.7169 25.1145 10.9781 24.257C10.2773 23.4436 10.0002 22.4471 10.0001 21.6156L10.0001 12.9004C10.0001 12.8779 10.0001 12.8544 10.0001 12.8301C9.9996 12.4741 9.99888 11.9319 10.0914 11.5081C10.1308 11.328 10.255 10.7961 10.7367 10.42C11.0274 10.1931 11.392 10.0682 11.778 10.0766C12.1287 10.0842 12.4101 10.1992 12.5962 10.2999L12.6583 10.3334L18.5661 14.3265C18.6142 14.355 18.6598 14.3823 18.7028 14.4084C18.7189 14.3968 18.7353 14.385 18.7521 14.373C19.0311 14.1733 19.5245 13.7838 20.5093 13.0334C20.773 12.8325 21.0508 12.6209 21.3311 12.4073L23.932 10.4255C24.2378 10.1876 24.8462 9.84739 25.5965 10.0752ZM12.8482 13.8397L12.8482 21.6153C12.8483 21.8939 12.9509 22.2303 13.1593 22.4722C13.3297 22.6699 13.6417 22.8933 14.3017 22.8933H20.0626L24.1519 26.6242V13.7813L23.0854 14.5939C23.0854 14.5939 20.4606 16.5939 20.4378 16.6102C20.377 16.6537 20.2996 16.7107 20.2194 16.7698C20.0875 16.867 19.9479 16.9697 19.8624 17.0271C19.7026 17.1342 19.2858 17.4104 18.7049 17.3937C18.2078 17.3794 17.8224 17.1479 17.6839 17.0647C17.6783 17.0614 17.6731 17.0582 17.6683 17.0554C17.5983 17.0136 17.5174 16.963 17.4432 16.9165C17.4234 16.9041 17.404 16.892 17.3855 16.8804C17.289 16.8202 17.1822 16.7543 17.0564 16.6805L17.0172 16.6575L12.8482 13.8397Z" fill="white"/>
<path d="M62.1602 11.8389V27H59.0381V17.8359L55.1748 22.0586H54.2764L50.3682 17.8359V27H47.2461V11.8389H48.3018L54.7256 18.5322L61.1045 11.8389H62.1602Z" fill="black"/>
<path d="M70.4321 15.3652C71.5401 15.3652 72.491 15.6048 73.2846 16.084C74.0932 16.5632 74.7071 17.2295 75.1264 18.083C75.5606 18.9215 75.7778 19.8949 75.7778 21.0029V22.2158H67.5571C67.7068 22.9795 68.0812 23.5934 68.6801 24.0576C69.2791 24.5218 70.0128 24.7539 70.8813 24.7539C71.7049 24.7539 72.4536 24.5892 73.1274 24.2598C73.8012 23.9303 74.3403 23.5934 74.7446 23.249L74.7221 25.8994C74.3627 26.2139 73.8237 26.5358 73.1049 26.8652C72.4011 27.1797 71.6225 27.3369 70.769 27.3369C69.6459 27.3369 68.6202 27.0824 67.6918 26.5732C66.7784 26.0641 66.0447 25.3678 65.4907 24.4844C64.9516 23.6009 64.6821 22.5902 64.6821 21.4521C64.6821 20.3441 64.9291 19.3333 65.4233 18.4199C65.9174 17.5065 66.5987 16.7728 67.4672 16.2188C68.3357 15.6497 69.324 15.3652 70.4321 15.3652ZM70.3647 17.8584C69.6609 17.8584 69.0694 18.0755 68.5903 18.5098C68.1111 18.944 67.7817 19.528 67.602 20.2617H73.0375C72.9776 19.4531 72.6782 18.8542 72.1391 18.4648C71.6 18.0605 71.0086 17.8584 70.3647 17.8584Z" fill="black"/>
<path d="M80.5458 15.6572V17.2744C80.8902 16.8102 81.3544 16.376 81.9384 15.9717C82.5373 15.5674 83.2186 15.3652 83.9823 15.3652C85.1353 15.3652 86.1011 15.7546 86.8798 16.5332C87.6584 17.3118 88.0477 18.4798 88.0477 20.0371V27H85.1952L85.1727 20.4189C85.1727 19.6553 84.9856 19.0863 84.6112 18.7119C84.2518 18.3376 83.7502 18.1504 83.1063 18.1504C82.5972 18.1504 82.118 18.3151 81.6688 18.6445C81.2346 18.974 80.8602 19.3633 80.5458 19.8125V27H77.6932V15.6572H80.5458Z" fill="black"/>
<path d="M94.4105 12.3555V15.6572H97.555V18.0381H94.4105V22.9346C94.4105 23.4437 94.5228 23.848 94.7474 24.1475C94.987 24.432 95.3389 24.5742 95.803 24.5742C96.2073 24.5742 96.5517 24.5293 96.8363 24.4395C97.1357 24.3496 97.4127 24.2223 97.6673 24.0576V26.3262C97.3828 26.6107 97.0234 26.8503 96.5892 27.0449C96.1699 27.2396 95.6383 27.3369 94.9945 27.3369C93.9762 27.3369 93.1452 27.015 92.5013 26.3711C91.8724 25.7122 91.5579 24.8138 91.5579 23.6758V18.0381H89.514V16.5781C90.2327 16.3236 90.8916 15.8444 91.4905 15.1406C92.1045 14.4368 92.5911 13.5085 92.9505 12.3555H94.4105Z" fill="black"/>
<path d="M105.063 15.3652C106.171 15.3652 107.182 15.6348 108.095 16.1738C109.009 16.6979 109.743 17.4167 110.297 18.3301C110.866 19.2285 111.15 20.2393 111.15 21.3623C111.15 22.4854 110.866 23.4961 110.297 24.3945C109.743 25.293 109.009 26.0117 108.095 26.5508C107.182 27.0749 106.171 27.3369 105.063 27.3369C103.97 27.3369 102.959 27.0749 102.031 26.5508C101.118 26.0117 100.384 25.293 99.8298 24.3945C99.2758 23.4961 98.9988 22.4854 98.9988 21.3623C98.9988 20.2393 99.2758 19.2285 99.8298 18.3301C100.384 17.4167 101.118 16.6979 102.031 16.1738C102.959 15.6348 103.97 15.3652 105.063 15.3652ZM105.063 18.1279C104.524 18.1279 104.023 18.2552 103.558 18.5098C103.094 18.7643 102.72 19.1312 102.435 19.6104C102.166 20.0895 102.031 20.6735 102.031 21.3623C102.031 22.0511 102.166 22.6351 102.435 23.1143C102.72 23.5934 103.094 23.9603 103.558 24.2148C104.023 24.4544 104.524 24.5742 105.063 24.5742C105.602 24.5742 106.104 24.4544 106.568 24.2148C107.032 23.9603 107.407 23.5934 107.691 23.1143C107.976 22.6351 108.118 22.0511 108.118 21.3623C108.118 20.6735 107.976 20.0895 107.691 19.6104C107.407 19.1312 107.032 18.7643 106.568 18.5098C106.104 18.2552 105.602 18.1279 105.063 18.1279Z" fill="black"/>
<path d="M120.298 18.8467C119.819 18.5771 119.317 18.4424 118.793 18.4424C118.134 18.4424 117.588 18.6595 117.154 19.0938C116.719 19.513 116.337 20.0371 116.008 20.666V27H113.155V15.6572H116.008V17.791C116.397 17.1172 116.854 16.5557 117.378 16.1064C117.917 15.6572 118.524 15.4326 119.197 15.4326C119.602 15.4326 119.969 15.5 120.298 15.6348V18.8467Z" fill="black"/>
<path d="M124.662 15.6572V17.2744C125.006 16.8102 125.47 16.376 126.054 15.9717C126.653 15.5674 127.335 15.3652 128.098 15.3652C129.251 15.3652 130.217 15.7546 130.996 16.5332C131.774 17.3118 132.164 18.4798 132.164 20.0371V27H129.311L129.289 20.4189C129.289 19.6553 129.102 19.0863 128.727 18.7119C128.368 18.3376 127.866 18.1504 127.222 18.1504C126.713 18.1504 126.234 18.3151 125.785 18.6445C125.351 18.974 124.976 19.3633 124.662 19.8125V27H121.809V15.6572H124.662Z" fill="black"/>
<path d="M137.134 9.75C137.673 9.75 138.137 9.94466 138.526 10.334C138.916 10.7083 139.11 11.1576 139.11 11.6816C139.11 12.1908 138.916 12.64 138.526 13.0293C138.137 13.4186 137.673 13.6133 137.134 13.6133C136.595 13.6133 136.131 13.4186 135.741 13.0293C135.367 12.64 135.18 12.1908 135.18 11.6816C135.18 11.1576 135.367 10.7083 135.741 10.334C136.131 9.94466 136.595 9.75 137.134 9.75ZM138.796 15.6572V27H135.943V18.083H134.124V15.6572H138.796Z" fill="black"/>
<path d="M145.81 12.3555V15.6572H148.955V18.0381H145.81V22.9346C145.81 23.4437 145.922 23.848 146.147 24.1475C146.387 24.432 146.738 24.5742 147.203 24.5742C147.607 24.5742 147.951 24.5293 148.236 24.4395C148.535 24.3496 148.812 24.2223 149.067 24.0576V26.3262C148.782 26.6107 148.423 26.8503 147.989 27.0449C147.57 27.2396 147.038 27.3369 146.394 27.3369C145.376 27.3369 144.545 27.015 143.901 26.3711C143.272 25.7122 142.958 24.8138 142.958 23.6758V18.0381H140.914V16.5781C141.632 16.3236 142.291 15.8444 142.89 15.1406C143.504 14.4368 143.991 13.5085 144.35 12.3555H145.81Z" fill="black"/>
<path d="M153.094 15.6572L156.328 22.8896L159.473 15.6572H162.729L154.486 32.3906H151.252L154.666 26.1689L149.769 15.6572H153.094Z" fill="black"/>
</svg>
