<svg width="322" height="82" viewBox="0 0 322 82" fill="none" xmlns="http://www.w3.org/2000/svg">
<path d="M207.613 41.7677V42.2677C207.6 42.2677 207.587 42.2672 207.574 42.2662L207.613 41.7677ZM206.257 41.6613L206.257 41.1613L206.276 41.1613L206.296 41.1628L206.257 41.6613ZM4.14163 77.3064L4.63956 77.261C4.64094 77.2761 4.64163 77.2913 4.64163 77.3064L4.14163 77.3064ZM4.49522 81.8536C4.29996 82.0488 3.98338 82.0488 3.78811 81.8536L0.606108 78.6716C0.410845 78.4763 0.410842 78.1598 0.606103 77.9645C0.801364 77.7692 1.11795 77.7692 1.31321 77.9645L4.14166 80.7929L6.97006 77.9644C7.16532 77.7692 7.48191 77.7692 7.67717 77.9644C7.87243 78.1597 7.87244 78.4763 7.67718 78.6715L4.49522 81.8536ZM321.142 0C321.142 8.70782 319.058 15.7482 314.628 21.3897C310.204 27.0249 303.48 31.2118 294.297 34.2953C275.955 40.4546 247.617 42.2677 207.613 42.2677V41.2677C247.637 41.2677 275.814 39.4469 293.979 33.3474C303.05 30.3014 309.578 26.2027 313.842 20.7721C318.101 15.3477 320.142 8.54218 320.142 0H321.142ZM207.574 42.2662L206.218 42.1598L206.296 41.1628L207.652 41.2692L207.574 42.2662ZM206.258 42.1613C154.643 42.2145 103.062 38.7992 64.8793 41.5326C45.7898 42.8991 30.1408 45.7996 19.5567 51.3928C14.273 54.1849 10.2756 57.6359 7.73389 61.8797C5.19505 66.1188 4.08528 71.1877 4.63956 77.261L3.6437 77.3519C3.07299 71.0986 4.21321 65.8119 6.87599 61.3659C9.53588 56.9248 13.6917 53.3611 19.0895 50.5086C29.8684 44.8125 45.6954 41.9033 64.8079 40.5351C103.029 37.7991 154.756 41.2144 206.257 41.1613L206.258 42.1613ZM4.64163 77.3064L4.64166 81.5L3.64166 81.5L3.64163 77.3065L4.64163 77.3064Z" fill="black"/>
</svg>
