<svg width="290" height="311" viewBox="0 0 290 311" fill="none" xmlns="http://www.w3.org/2000/svg">
<path d="M40.7398 58.8299C40.6319 56.347 38.5315 54.4217 36.0486 54.5297C33.5657 54.6376 31.6404 56.7379 31.7483 59.2209L40.7398 58.8299ZM274.794 225.612L274.794 221.112C274.773 221.112 274.753 221.113 274.732 221.113L274.794 225.612ZM284.546 228.794C286.304 227.037 286.304 224.188 284.546 222.431L255.909 193.793C254.151 192.035 251.302 192.035 249.545 193.793C247.787 195.55 247.787 198.399 249.545 200.157L275 225.612L249.545 251.068C247.787 252.826 247.787 255.675 249.545 257.432C251.302 259.19 254.151 259.19 255.909 257.432L284.546 228.794ZM31.7483 59.2209C34.644 125.821 62.7793 169.344 106.988 195.743C150.857 221.94 210.072 230.994 274.855 230.112L274.732 221.113C210.582 221.987 153.357 212.95 111.602 188.016C70.1868 163.284 43.514 122.635 40.7398 58.8299L31.7483 59.2209ZM274.794 230.112L281.364 230.112L281.364 221.112L274.794 221.112L274.794 230.112Z" fill="#0840AF"/>
</svg>
