<svg width="315" height="81" viewBox="0 0 315 81" fill="none" xmlns="http://www.w3.org/2000/svg">
<path d="M111.658 40.999V41.499C111.671 41.499 111.684 41.4984 111.697 41.4974L111.658 40.999ZM112.985 40.8945L112.986 40.3945L112.966 40.3945L112.946 40.3961L112.985 40.8945ZM310.861 75.8836L310.363 75.8383C310.362 75.8534 310.361 75.8685 310.361 75.8836L310.861 75.8836ZM310.508 80.3536C310.703 80.5488 311.02 80.5488 311.215 80.3536L314.397 77.1716C314.592 76.9763 314.592 76.6598 314.397 76.4645C314.202 76.2692 313.885 76.2692 313.69 76.4645L310.861 79.2929L308.033 76.4644C307.838 76.2692 307.521 76.2692 307.326 76.4644C307.131 76.6597 307.131 76.9763 307.326 77.1715L310.508 80.3536ZM0.5 0C0.5 8.54879 2.5406 15.4616 6.87866 21.0012C11.2119 26.5346 17.7967 30.6455 26.7881 33.6727C44.748 39.7194 72.4931 41.499 111.658 41.499V40.499C72.4726 40.499 44.8887 38.7116 27.1072 32.725C18.2279 29.7356 11.8389 25.7133 7.66598 20.3846C3.49788 15.0621 1.5 8.38372 1.5 0H0.5ZM111.697 41.4974L113.025 41.393L112.946 40.3961L111.619 40.5005L111.697 41.4974ZM112.985 41.3945C163.519 41.4468 214.015 38.0943 251.397 40.7773C270.086 42.1187 285.404 44.9657 295.764 50.4548C300.936 53.1949 304.848 56.5811 307.335 60.7451C309.82 64.9043 310.906 69.8781 310.363 75.8383L311.359 75.929C311.918 69.7894 310.802 64.5982 308.194 60.2323C305.588 55.871 301.518 52.3718 296.232 49.5711C285.677 43.9787 270.18 41.1229 251.468 39.7799C214.049 37.0942 163.405 40.4467 112.986 40.3945L112.985 41.3945ZM310.361 75.8836L310.361 80L311.361 80L311.361 75.8836L310.361 75.8836Z" fill="black"/>
</svg>
